<mxfile host="app.diagrams.net" agent="Mozilla/5.0 (Windows NT 10.0; Win64; x64) AppleWebKit/537.36 (KHTML, like Gecko) Chrome/137.0.0.0 Safari/537.36" version="27.1.6">
  <diagram name="Seite-1" id="UYETo2p1xJg74lrRWvft">
    <mxGraphModel dx="2316" dy="869" grid="1" gridSize="10" guides="1" tooltips="1" connect="1" arrows="1" fold="1" page="1" pageScale="1" pageWidth="827" pageHeight="1169" math="0" shadow="0">
      <root>
        <mxCell id="0" />
        <mxCell id="1" parent="0" />
        <mxCell id="ONKPaoe81_HWcrtORsaL-3" value="Management " style="swimlane;horizontal=0;whiteSpace=wrap;html=1;startSize=23;" vertex="1" parent="1">
          <mxGeometry x="-50" y="110" width="780" height="200" as="geometry" />
        </mxCell>
        <mxCell id="ONKPaoe81_HWcrtORsaL-14" value="" style="edgeStyle=orthogonalEdgeStyle;rounded=0;orthogonalLoop=1;jettySize=auto;html=1;" edge="1" parent="ONKPaoe81_HWcrtORsaL-3" source="ONKPaoe81_HWcrtORsaL-11" target="ONKPaoe81_HWcrtORsaL-13">
          <mxGeometry relative="1" as="geometry" />
        </mxCell>
        <mxCell id="ONKPaoe81_HWcrtORsaL-11" value="" style="ellipse;whiteSpace=wrap;html=1;aspect=fixed;" vertex="1" parent="ONKPaoe81_HWcrtORsaL-3">
          <mxGeometry x="70" y="35" width="20" height="20" as="geometry" />
        </mxCell>
        <mxCell id="ONKPaoe81_HWcrtORsaL-12" value="&lt;font style=&quot;font-size: 8px;&quot;&gt;Eingang der Anfrage / Bestellung&lt;/font&gt;" style="text;strokeColor=none;fillColor=none;align=left;verticalAlign=top;spacingLeft=4;spacingRight=4;overflow=hidden;rotatable=0;points=[[0,0.5],[1,0.5]];portConstraint=eastwest;whiteSpace=wrap;html=1;" vertex="1" parent="ONKPaoe81_HWcrtORsaL-3">
          <mxGeometry x="60" y="50" width="60" height="60" as="geometry" />
        </mxCell>
        <mxCell id="ONKPaoe81_HWcrtORsaL-16" value="" style="edgeStyle=orthogonalEdgeStyle;rounded=0;orthogonalLoop=1;jettySize=auto;html=1;" edge="1" parent="ONKPaoe81_HWcrtORsaL-3" source="ONKPaoe81_HWcrtORsaL-13" target="ONKPaoe81_HWcrtORsaL-15">
          <mxGeometry relative="1" as="geometry" />
        </mxCell>
        <mxCell id="ONKPaoe81_HWcrtORsaL-13" value="&lt;font style=&quot;font-size: 7px;&quot;&gt;Analyse der Anforderungen&lt;/font&gt;" style="whiteSpace=wrap;html=1;" vertex="1" parent="ONKPaoe81_HWcrtORsaL-3">
          <mxGeometry x="140" y="31.25" width="60" height="27.5" as="geometry" />
        </mxCell>
        <mxCell id="ONKPaoe81_HWcrtORsaL-21" value="&lt;font style=&quot;font-size: 8px;&quot;&gt;Ja&lt;/font&gt;" style="edgeStyle=orthogonalEdgeStyle;rounded=0;orthogonalLoop=1;jettySize=auto;html=1;" edge="1" parent="ONKPaoe81_HWcrtORsaL-3" source="ONKPaoe81_HWcrtORsaL-15" target="ONKPaoe81_HWcrtORsaL-20">
          <mxGeometry y="15" relative="1" as="geometry">
            <mxPoint as="offset" />
          </mxGeometry>
        </mxCell>
        <mxCell id="ONKPaoe81_HWcrtORsaL-15" value="&lt;font style=&quot;font-size: 7px;&quot;&gt;Dienstleistung erfüllbar?&lt;/font&gt;" style="verticalLabelPosition=bottom;verticalAlign=top;html=1;shape=mxgraph.flowchart.or;" vertex="1" parent="ONKPaoe81_HWcrtORsaL-3">
          <mxGeometry x="240" y="35" width="20" height="20" as="geometry" />
        </mxCell>
        <mxCell id="ONKPaoe81_HWcrtORsaL-25" value="" style="edgeStyle=orthogonalEdgeStyle;rounded=0;orthogonalLoop=1;jettySize=auto;html=1;" edge="1" parent="ONKPaoe81_HWcrtORsaL-3" source="ONKPaoe81_HWcrtORsaL-20" target="ONKPaoe81_HWcrtORsaL-22">
          <mxGeometry relative="1" as="geometry" />
        </mxCell>
        <mxCell id="ONKPaoe81_HWcrtORsaL-20" value="&lt;font style=&quot;font-size: 7px;&quot;&gt;Erstellung des Angebots&lt;/font&gt;" style="whiteSpace=wrap;html=1;verticalAlign=top;" vertex="1" parent="ONKPaoe81_HWcrtORsaL-3">
          <mxGeometry x="320" y="32.5" width="80" height="25" as="geometry" />
        </mxCell>
        <mxCell id="ONKPaoe81_HWcrtORsaL-29" value="" style="edgeStyle=orthogonalEdgeStyle;rounded=0;orthogonalLoop=1;jettySize=auto;html=1;" edge="1" parent="ONKPaoe81_HWcrtORsaL-3" source="ONKPaoe81_HWcrtORsaL-22" target="ONKPaoe81_HWcrtORsaL-28">
          <mxGeometry relative="1" as="geometry" />
        </mxCell>
        <mxCell id="ONKPaoe81_HWcrtORsaL-22" value="" style="shape=orEllipse;perimeter=ellipsePerimeter;whiteSpace=wrap;html=1;backgroundOutline=1;" vertex="1" parent="ONKPaoe81_HWcrtORsaL-3">
          <mxGeometry x="440" y="35" width="20" height="20" as="geometry" />
        </mxCell>
        <mxCell id="ONKPaoe81_HWcrtORsaL-28" value="&lt;font style=&quot;font-size: 8px;&quot;&gt;Erfassung der Kundendaten&lt;/font&gt;" style="whiteSpace=wrap;html=1;" vertex="1" parent="ONKPaoe81_HWcrtORsaL-3">
          <mxGeometry x="530" y="30" width="80" height="30" as="geometry" />
        </mxCell>
        <mxCell id="ONKPaoe81_HWcrtORsaL-4" value="Entwicklungsteam&amp;nbsp;&amp;nbsp;" style="swimlane;horizontal=0;whiteSpace=wrap;html=1;" vertex="1" parent="1">
          <mxGeometry x="-50" y="310" width="780" height="200" as="geometry" />
        </mxCell>
        <mxCell id="ONKPaoe81_HWcrtORsaL-30" value="&lt;font style=&quot;font-size: 8px;&quot;&gt;Entwicklung&lt;/font&gt;" style="whiteSpace=wrap;html=1;" vertex="1" parent="ONKPaoe81_HWcrtORsaL-4">
          <mxGeometry x="390" y="110" width="60" height="30" as="geometry" />
        </mxCell>
        <mxCell id="ONKPaoe81_HWcrtORsaL-34" value="&lt;font style=&quot;font-size: 8px;&quot;&gt;Deployment&lt;/font&gt;" style="whiteSpace=wrap;html=1;" vertex="1" parent="ONKPaoe81_HWcrtORsaL-4">
          <mxGeometry x="680" y="120" width="70" height="35" as="geometry" />
        </mxCell>
        <mxCell id="ONKPaoe81_HWcrtORsaL-5" value="Qualitätssicherung &amp;amp; Testing" style="swimlane;horizontal=0;whiteSpace=wrap;html=1;" vertex="1" parent="1">
          <mxGeometry x="-50" y="510" width="780" height="200" as="geometry" />
        </mxCell>
        <mxCell id="ONKPaoe81_HWcrtORsaL-32" value="&lt;font style=&quot;font-size: 8px;&quot;&gt;Durchführung von Tests&lt;/font&gt;" style="whiteSpace=wrap;html=1;" vertex="1" parent="ONKPaoe81_HWcrtORsaL-5">
          <mxGeometry x="430" y="15" width="80" height="35" as="geometry" />
        </mxCell>
        <mxCell id="ONKPaoe81_HWcrtORsaL-39" value="&lt;font style=&quot;font-size: 7px;&quot;&gt;Tests erfolgreich?&lt;/font&gt;" style="verticalLabelPosition=bottom;verticalAlign=top;html=1;shape=mxgraph.flowchart.or;" vertex="1" parent="ONKPaoe81_HWcrtORsaL-5">
          <mxGeometry x="485" y="90" width="20" height="20" as="geometry" />
        </mxCell>
        <mxCell id="ONKPaoe81_HWcrtORsaL-42" value="" style="edgeStyle=orthogonalEdgeStyle;rounded=0;orthogonalLoop=1;jettySize=auto;html=1;" edge="1" parent="ONKPaoe81_HWcrtORsaL-5" source="ONKPaoe81_HWcrtORsaL-32" target="ONKPaoe81_HWcrtORsaL-39">
          <mxGeometry relative="1" as="geometry" />
        </mxCell>
        <mxCell id="ONKPaoe81_HWcrtORsaL-6" value="Kunde" style="rounded=0;whiteSpace=wrap;html=1;" vertex="1" parent="1">
          <mxGeometry x="-50" width="770" height="60" as="geometry" />
        </mxCell>
        <mxCell id="ONKPaoe81_HWcrtORsaL-8" value="" style="shape=message;html=1;html=1;outlineConnect=0;labelPosition=center;verticalLabelPosition=bottom;align=center;verticalAlign=top;" vertex="1" parent="1">
          <mxGeometry x="-10" y="20" width="30" height="20" as="geometry" />
        </mxCell>
        <mxCell id="ONKPaoe81_HWcrtORsaL-9" value="" style="endArrow=classic;html=1;rounded=0;exitX=0.061;exitY=0.963;exitDx=0;exitDy=0;exitPerimeter=0;" edge="1" parent="1" source="ONKPaoe81_HWcrtORsaL-6" target="ONKPaoe81_HWcrtORsaL-11">
          <mxGeometry width="50" height="50" relative="1" as="geometry">
            <mxPoint x="320" y="240" as="sourcePoint" />
            <mxPoint x="30" y="150" as="targetPoint" />
          </mxGeometry>
        </mxCell>
        <mxCell id="ONKPaoe81_HWcrtORsaL-10" value="Bestellt Dienstleistung" style="text;strokeColor=none;fillColor=none;align=left;verticalAlign=top;spacingLeft=4;spacingRight=4;overflow=hidden;rotatable=0;points=[[0,0.5],[1,0.5]];portConstraint=eastwest;whiteSpace=wrap;html=1;fontSize=8;" vertex="1" parent="1">
          <mxGeometry x="-30" y="40" width="90" height="33" as="geometry" />
        </mxCell>
        <mxCell id="ONKPaoe81_HWcrtORsaL-18" value="&lt;font style=&quot;font-size: 8px;&quot;&gt;Dienstleistung unerfüllbar: Mail an Kunden&lt;/font&gt;" style="shape=message;html=1;html=1;outlineConnect=0;labelPosition=center;verticalLabelPosition=bottom;align=center;verticalAlign=top;" vertex="1" parent="1">
          <mxGeometry x="210" y="10" width="30" height="20" as="geometry" />
        </mxCell>
        <mxCell id="ONKPaoe81_HWcrtORsaL-19" value="&lt;font style=&quot;font-size: 7px;&quot;&gt;Nein&lt;/font&gt;" style="edgeStyle=orthogonalEdgeStyle;rounded=0;orthogonalLoop=1;jettySize=auto;html=1;" edge="1" parent="1" source="ONKPaoe81_HWcrtORsaL-15" target="ONKPaoe81_HWcrtORsaL-18">
          <mxGeometry x="-0.6154" y="10" relative="1" as="geometry">
            <mxPoint as="offset" />
          </mxGeometry>
        </mxCell>
        <mxCell id="ONKPaoe81_HWcrtORsaL-26" value="&lt;font style=&quot;font-size: 8px;&quot;&gt;Übermittlung Angebot&lt;/font&gt;&lt;span style=&quot;font-size: 8px;&quot;&gt;: Mail an Kunden&lt;/span&gt;" style="shape=message;html=1;html=1;outlineConnect=0;labelPosition=center;verticalLabelPosition=bottom;align=center;verticalAlign=top;" vertex="1" parent="1">
          <mxGeometry x="430" y="10" width="30" height="20" as="geometry" />
        </mxCell>
        <mxCell id="ONKPaoe81_HWcrtORsaL-27" value="" style="edgeStyle=orthogonalEdgeStyle;rounded=0;orthogonalLoop=1;jettySize=auto;html=1;" edge="1" parent="1" source="ONKPaoe81_HWcrtORsaL-22" target="ONKPaoe81_HWcrtORsaL-26">
          <mxGeometry relative="1" as="geometry" />
        </mxCell>
        <mxCell id="ONKPaoe81_HWcrtORsaL-31" value="" style="edgeStyle=orthogonalEdgeStyle;rounded=0;orthogonalLoop=1;jettySize=auto;html=1;" edge="1" parent="1" source="ONKPaoe81_HWcrtORsaL-22" target="ONKPaoe81_HWcrtORsaL-30">
          <mxGeometry relative="1" as="geometry" />
        </mxCell>
        <mxCell id="ONKPaoe81_HWcrtORsaL-33" value="" style="edgeStyle=orthogonalEdgeStyle;rounded=0;orthogonalLoop=1;jettySize=auto;html=1;" edge="1" parent="1" source="ONKPaoe81_HWcrtORsaL-30" target="ONKPaoe81_HWcrtORsaL-32">
          <mxGeometry relative="1" as="geometry" />
        </mxCell>
        <mxCell id="ONKPaoe81_HWcrtORsaL-35" value="&lt;font style=&quot;font-size: 8px;&quot;&gt;Ja&lt;/font&gt;" style="edgeStyle=orthogonalEdgeStyle;rounded=0;orthogonalLoop=1;jettySize=auto;html=1;exitX=1;exitY=0.5;exitDx=0;exitDy=0;exitPerimeter=0;" edge="1" parent="1" source="ONKPaoe81_HWcrtORsaL-39" target="ONKPaoe81_HWcrtORsaL-34">
          <mxGeometry x="-0.8028" y="10" relative="1" as="geometry">
            <mxPoint x="610" y="570" as="sourcePoint" />
            <mxPoint as="offset" />
          </mxGeometry>
        </mxCell>
        <mxCell id="ONKPaoe81_HWcrtORsaL-36" value="" style="strokeWidth=2;html=1;shape=mxgraph.flowchart.start_2;whiteSpace=wrap;" vertex="1" parent="1">
          <mxGeometry x="680" y="20" width="20" height="20" as="geometry" />
        </mxCell>
        <mxCell id="ONKPaoe81_HWcrtORsaL-38" value="&lt;font style=&quot;font-size: 8px;&quot;&gt;Übergabe an Kunden&lt;/font&gt;" style="edgeStyle=orthogonalEdgeStyle;rounded=0;orthogonalLoop=1;jettySize=auto;html=1;exitX=0.5;exitY=0;exitDx=0;exitDy=0;entryX=0.5;entryY=1;entryDx=0;entryDy=0;entryPerimeter=0;" edge="1" parent="1" source="ONKPaoe81_HWcrtORsaL-34" target="ONKPaoe81_HWcrtORsaL-36">
          <mxGeometry x="0.9518" y="50" relative="1" as="geometry">
            <mxPoint as="offset" />
          </mxGeometry>
        </mxCell>
        <mxCell id="ONKPaoe81_HWcrtORsaL-43" value="&lt;font style=&quot;font-size: 8px;&quot;&gt;Nein&lt;/font&gt;" style="edgeStyle=orthogonalEdgeStyle;rounded=0;orthogonalLoop=1;jettySize=auto;html=1;entryX=0;entryY=0.5;entryDx=0;entryDy=0;" edge="1" parent="1" source="ONKPaoe81_HWcrtORsaL-39" target="ONKPaoe81_HWcrtORsaL-30">
          <mxGeometry x="-0.7742" y="-10" relative="1" as="geometry">
            <mxPoint as="offset" />
          </mxGeometry>
        </mxCell>
      </root>
    </mxGraphModel>
  </diagram>
</mxfile>
